<mxfile host="Electron" agent="Mozilla/5.0 (Windows NT 10.0; Win64; x64) AppleWebKit/537.36 (KHTML, like Gecko) draw.io/26.0.9 Chrome/128.0.6613.186 Electron/32.2.5 Safari/537.36" version="26.0.9">
  <diagram id="R2lEEEUBdFMjLlhIrx00" name="Page-1">
    <mxGraphModel dx="1900" dy="629" grid="1" gridSize="10" guides="1" tooltips="1" connect="1" arrows="1" fold="1" page="1" pageScale="1" pageWidth="850" pageHeight="1100" background="none" math="0" shadow="0" extFonts="Permanent Marker^https://fonts.googleapis.com/css?family=Permanent+Marker">
      <root>
        <mxCell id="0" />
        <mxCell id="1" parent="0" />
        <mxCell id="QR9d3r7scgIrLYgvwBB5-24" value="Users" style="swimlane;childLayout=stackLayout;horizontal=1;startSize=30;horizontalStack=0;rounded=1;fontSize=14;fontStyle=0;strokeWidth=2;resizeParent=0;resizeLast=1;shadow=0;dashed=0;align=center;arcSize=4;whiteSpace=wrap;html=1;strokeColor=none;fillColor=light-dark(#FFFFFF,#222222);fontColor=light-dark(#000000,#D7D7D9);" parent="1" vertex="1">
          <mxGeometry x="100" y="90" width="160" height="100" as="geometry" />
        </mxCell>
        <mxCell id="QR9d3r7scgIrLYgvwBB5-25" value="&lt;u&gt;&lt;font style=&quot;color: light-dark(rgb(0, 0, 0), rgb(215, 215, 217));&quot;&gt;user_id&lt;/font&gt;&lt;/u&gt;&lt;div&gt;&lt;font style=&quot;color: light-dark(rgb(0, 0, 0), rgb(215, 215, 217));&quot;&gt;password_hash&lt;/font&gt;&lt;/div&gt;&lt;div&gt;&lt;font style=&quot;color: light-dark(rgb(0, 0, 0), rgb(215, 215, 217));&quot;&gt;created_at&lt;/font&gt;&lt;/div&gt;&lt;div&gt;&lt;font style=&quot;color: light-dark(rgb(0, 0, 0), rgb(215, 215, 217));&quot;&gt;created_by&lt;/font&gt;&lt;/div&gt;&lt;div&gt;&lt;br&gt;&lt;/div&gt;" style="align=left;strokeColor=none;fillColor=light-dark(#FFFFFF,#37383F);spacingLeft=4;spacingRight=4;fontSize=12;verticalAlign=top;resizable=0;rotatable=0;part=1;html=1;whiteSpace=wrap;" parent="QR9d3r7scgIrLYgvwBB5-24" vertex="1">
          <mxGeometry y="30" width="160" height="70" as="geometry" />
        </mxCell>
        <mxCell id="QR9d3r7scgIrLYgvwBB5-28" value="Groups" style="swimlane;childLayout=stackLayout;horizontal=1;startSize=30;horizontalStack=0;rounded=1;fontSize=14;fontStyle=0;strokeWidth=2;resizeParent=0;resizeLast=1;shadow=0;dashed=0;align=center;arcSize=4;whiteSpace=wrap;html=1;strokeColor=none;fillColor=light-dark(#222222,#222222);fillStyle=solid;gradientColor=none;fontColor=light-dark(#000000,#D7D7D9);" parent="1" vertex="1">
          <mxGeometry x="110" y="361" width="160" height="99" as="geometry" />
        </mxCell>
        <mxCell id="QR9d3r7scgIrLYgvwBB5-29" value="&lt;u&gt;group_id&lt;/u&gt;&lt;div&gt;group_name&lt;/div&gt;&lt;div&gt;created_at&lt;/div&gt;&lt;div&gt;created_by&lt;/div&gt;&lt;div&gt;&lt;br&gt;&lt;/div&gt;" style="align=left;strokeColor=none;fillColor=light-dark(#FFFFFF,#37383F);spacingLeft=4;spacingRight=4;fontSize=12;verticalAlign=top;resizable=0;rotatable=0;part=1;html=1;whiteSpace=wrap;fontColor=light-dark(#000000,#D7D7D9);" parent="QR9d3r7scgIrLYgvwBB5-28" vertex="1">
          <mxGeometry y="30" width="160" height="69" as="geometry" />
        </mxCell>
        <mxCell id="QR9d3r7scgIrLYgvwBB5-34" value="AuditLog" style="swimlane;childLayout=stackLayout;horizontal=1;startSize=30;horizontalStack=0;rounded=1;fontSize=14;fontStyle=0;strokeWidth=2;resizeParent=0;resizeLast=1;shadow=0;dashed=0;align=center;arcSize=4;whiteSpace=wrap;html=1;strokeColor=none;fillColor=light-dark(#FFFFFF,#222222);fontColor=light-dark(#000000,#D7D7D9);" parent="1" vertex="1">
          <mxGeometry x="-190" y="210" width="160" height="150" as="geometry" />
        </mxCell>
        <mxCell id="QR9d3r7scgIrLYgvwBB5-35" value="&lt;u&gt;log_id&lt;/u&gt;&lt;div&gt;user_id&lt;/div&gt;&lt;div&gt;action&lt;/div&gt;&lt;div&gt;message&lt;/div&gt;&lt;div&gt;timestamp&lt;/div&gt;&lt;div&gt;affected_userId&lt;/div&gt;&lt;div&gt;affected_groupId&lt;/div&gt;&lt;div&gt;&lt;br&gt;&lt;/div&gt;" style="align=left;strokeColor=none;fillColor=light-dark(#FFFFFF,#37383F);spacingLeft=4;spacingRight=4;fontSize=12;verticalAlign=top;resizable=0;rotatable=0;part=1;html=1;whiteSpace=wrap;fontColor=light-dark(#000000,#D7D7D9);" parent="QR9d3r7scgIrLYgvwBB5-34" vertex="1">
          <mxGeometry y="30" width="160" height="120" as="geometry" />
        </mxCell>
        <mxCell id="QR9d3r7scgIrLYgvwBB5-37" value="" style="edgeStyle=entityRelationEdgeStyle;fontSize=12;html=1;endArrow=ERmany;startArrow=ERmany;rounded=0;strokeColor=light-dark(#000000,#9A9BA4);" parent="1" source="QR9d3r7scgIrLYgvwBB5-69" target="QR9d3r7scgIrLYgvwBB5-25" edge="1">
          <mxGeometry width="100" height="100" relative="1" as="geometry">
            <mxPoint x="-250" y="331" as="sourcePoint" />
            <mxPoint x="-150" y="231" as="targetPoint" />
          </mxGeometry>
        </mxCell>
        <mxCell id="QR9d3r7scgIrLYgvwBB5-55" value="has" style="shape=rhombus;perimeter=rhombusPerimeter;whiteSpace=wrap;html=1;align=center;fillColor=light-dark(#FFFFFF,#37383F);strokeColor=none;" parent="1" vertex="1">
          <mxGeometry x="350" y="107" width="120" height="60" as="geometry" />
        </mxCell>
        <mxCell id="QR9d3r7scgIrLYgvwBB5-56" value="" style="edgeStyle=entityRelationEdgeStyle;fontSize=12;html=1;endArrow=ERzeroToMany;startArrow=ERzeroToOne;rounded=0;exitX=1;exitY=0.25;exitDx=0;exitDy=0;strokeColor=light-dark(#000000,#9A9BA4);" parent="1" source="QR9d3r7scgIrLYgvwBB5-25" target="QR9d3r7scgIrLYgvwBB5-55" edge="1">
          <mxGeometry width="100" height="100" relative="1" as="geometry">
            <mxPoint x="-350" y="371" as="sourcePoint" />
            <mxPoint x="-250" y="271" as="targetPoint" />
            <Array as="points">
              <mxPoint x="-300" y="321" />
            </Array>
          </mxGeometry>
        </mxCell>
        <mxCell id="QR9d3r7scgIrLYgvwBB5-67" value="" style="edgeStyle=entityRelationEdgeStyle;fontSize=12;html=1;endArrow=ERmany;startArrow=ERmany;rounded=0;strokeColor=light-dark(#000000,#9A9BA4);" parent="1" source="QR9d3r7scgIrLYgvwBB5-28" target="QR9d3r7scgIrLYgvwBB5-69" edge="1">
          <mxGeometry width="100" height="100" relative="1" as="geometry">
            <mxPoint x="50" y="426" as="sourcePoint" />
            <mxPoint x="120" y="171" as="targetPoint" />
          </mxGeometry>
        </mxCell>
        <mxCell id="QR9d3r7scgIrLYgvwBB5-68" value="m" style="edgeLabel;html=1;align=center;verticalAlign=middle;resizable=0;points=[];" parent="QR9d3r7scgIrLYgvwBB5-67" vertex="1" connectable="0">
          <mxGeometry x="-0.8494" relative="1" as="geometry">
            <mxPoint x="-4" as="offset" />
          </mxGeometry>
        </mxCell>
        <mxCell id="QR9d3r7scgIrLYgvwBB5-69" value="has" style="shape=rhombus;perimeter=rhombusPerimeter;whiteSpace=wrap;html=1;align=center;fillColor=light-dark(#FFFFFF,#37383F);strokeColor=none;" parent="1" vertex="1">
          <mxGeometry x="200" y="261" width="120" height="60" as="geometry" />
        </mxCell>
        <mxCell id="RMJezqJ9wQXo-V2EjESx-3" value="0...N" style="edgeLabel;html=1;align=center;verticalAlign=middle;resizable=0;points=[];labelBackgroundColor=none;" parent="1" vertex="1" connectable="0">
          <mxGeometry x="320" y="240" as="geometry">
            <mxPoint x="3" y="-2" as="offset" />
          </mxGeometry>
        </mxCell>
        <mxCell id="RMJezqJ9wQXo-V2EjESx-4" value="0...M" style="edgeLabel;html=1;align=center;verticalAlign=middle;resizable=0;points=[];labelBackgroundColor=none;" parent="1" vertex="1" connectable="0">
          <mxGeometry x="320" y="365" as="geometry" />
        </mxCell>
        <mxCell id="RMJezqJ9wQXo-V2EjESx-8" value="Roles" style="swimlane;childLayout=stackLayout;horizontal=1;startSize=30;horizontalStack=0;rounded=1;fontSize=14;fontStyle=0;strokeWidth=2;resizeParent=0;resizeLast=1;shadow=0;dashed=0;align=center;arcSize=4;whiteSpace=wrap;html=1;strokeColor=none;fillColor=light-dark(#FFFFFF,#222222);fontColor=light-dark(#000000,#D7D7D9);" parent="1" vertex="1">
          <mxGeometry x="560" y="86" width="160" height="72" as="geometry" />
        </mxCell>
        <mxCell id="RMJezqJ9wQXo-V2EjESx-9" value="&lt;u&gt;&lt;font style=&quot;color: light-dark(rgb(0, 0, 0), rgb(215, 215, 217));&quot;&gt;role_id&lt;/font&gt;&lt;/u&gt;&lt;div&gt;&lt;font color=&quot;#d7d7d9&quot;&gt;role_name&lt;/font&gt;&lt;/div&gt;" style="align=left;strokeColor=none;fillColor=light-dark(#FFFFFF,#37383F);spacingLeft=4;spacingRight=4;fontSize=12;verticalAlign=top;resizable=0;rotatable=0;part=1;html=1;whiteSpace=wrap;" parent="RMJezqJ9wQXo-V2EjESx-8" vertex="1">
          <mxGeometry y="30" width="160" height="42" as="geometry" />
        </mxCell>
        <mxCell id="RMJezqJ9wQXo-V2EjESx-13" value="" style="edgeStyle=entityRelationEdgeStyle;fontSize=12;html=1;endArrow=ERzeroToMany;startArrow=ERzeroToOne;rounded=0;entryX=0.944;entryY=0.494;entryDx=0;entryDy=0;strokeColor=light-dark(#000000,#9A9BA4);entryPerimeter=0;" parent="1" source="RMJezqJ9wQXo-V2EjESx-9" target="QR9d3r7scgIrLYgvwBB5-55" edge="1">
          <mxGeometry width="100" height="100" relative="1" as="geometry">
            <mxPoint x="460" y="155.76" as="sourcePoint" />
            <mxPoint x="520" y="155.76" as="targetPoint" />
            <Array as="points">
              <mxPoint x="-120" y="330.76" />
            </Array>
          </mxGeometry>
        </mxCell>
        <mxCell id="RMJezqJ9wQXo-V2EjESx-14" value="N" style="edgeLabel;html=1;align=center;verticalAlign=middle;resizable=0;points=[];labelBackgroundColor=none;" parent="1" vertex="1" connectable="0">
          <mxGeometry x="330" y="375" as="geometry">
            <mxPoint x="-19" y="-247" as="offset" />
          </mxGeometry>
        </mxCell>
        <mxCell id="RMJezqJ9wQXo-V2EjESx-15" value="M" style="edgeLabel;html=1;align=center;verticalAlign=middle;resizable=0;points=[];labelBackgroundColor=none;" parent="1" vertex="1" connectable="0">
          <mxGeometry x="495" y="130" as="geometry" />
        </mxCell>
        <mxCell id="H946ehROVmCah_HtwamR-8" value="has" style="shape=rhombus;perimeter=rhombusPerimeter;whiteSpace=wrap;html=1;align=center;fillColor=light-dark(#FFFFFF,#37383F);strokeColor=none;" vertex="1" parent="1">
          <mxGeometry x="-61" y="109" width="120" height="60" as="geometry" />
        </mxCell>
        <mxCell id="H946ehROVmCah_HtwamR-9" value="has" style="shape=rhombus;perimeter=rhombusPerimeter;whiteSpace=wrap;html=1;align=center;fillColor=light-dark(#FFFFFF,#37383F);strokeColor=none;" vertex="1" parent="1">
          <mxGeometry x="-59" y="395" width="120" height="60" as="geometry" />
        </mxCell>
        <mxCell id="H946ehROVmCah_HtwamR-11" value="" style="edgeStyle=entityRelationEdgeStyle;fontSize=12;html=1;endArrow=ERmany;startArrow=ERmany;rounded=0;strokeColor=light-dark(#000000,#9A9BA4);" edge="1" parent="1" source="QR9d3r7scgIrLYgvwBB5-35" target="H946ehROVmCah_HtwamR-9">
          <mxGeometry width="100" height="100" relative="1" as="geometry">
            <mxPoint x="-230.00000000000009" y="312.292" as="sourcePoint" />
            <mxPoint x="-120.6" y="437.7" as="targetPoint" />
            <Array as="points">
              <mxPoint x="-291.6" y="302.7" />
              <mxPoint x="-401.6" y="410.7" />
            </Array>
          </mxGeometry>
        </mxCell>
        <mxCell id="H946ehROVmCah_HtwamR-12" value="m" style="edgeLabel;html=1;align=center;verticalAlign=middle;resizable=0;points=[];" vertex="1" connectable="0" parent="H946ehROVmCah_HtwamR-11">
          <mxGeometry x="-0.8494" relative="1" as="geometry">
            <mxPoint x="19" y="8" as="offset" />
          </mxGeometry>
        </mxCell>
        <mxCell id="H946ehROVmCah_HtwamR-14" value="1" style="edgeStyle=entityRelationEdgeStyle;fontSize=12;html=1;endArrow=ERmany;startArrow=ERmany;rounded=0;strokeColor=light-dark(#000000,#9A9BA4);exitX=1;exitY=0.5;exitDx=0;exitDy=0;labelBackgroundColor=none;" edge="1" parent="1" source="H946ehROVmCah_HtwamR-9" target="QR9d3r7scgIrLYgvwBB5-29">
          <mxGeometry width="100" height="100" relative="1" as="geometry">
            <mxPoint x="-118" y="320" as="sourcePoint" />
            <mxPoint x="-90" y="430" as="targetPoint" />
            <Array as="points">
              <mxPoint x="-160" y="400" />
            </Array>
          </mxGeometry>
        </mxCell>
        <mxCell id="H946ehROVmCah_HtwamR-16" value="1" style="edgeStyle=entityRelationEdgeStyle;fontSize=12;html=1;endArrow=ERmany;startArrow=ERmany;rounded=0;strokeColor=light-dark(#000000,#9A9BA4);labelBackgroundColor=none;entryX=0;entryY=0.5;entryDx=0;entryDy=0;" edge="1" parent="1" source="H946ehROVmCah_HtwamR-8" target="QR9d3r7scgIrLYgvwBB5-24">
          <mxGeometry width="100" height="100" relative="1" as="geometry">
            <mxPoint x="-20" y="107" as="sourcePoint" />
            <mxPoint x="70" y="113" as="targetPoint" />
            <Array as="points">
              <mxPoint x="-200" y="87" />
            </Array>
          </mxGeometry>
        </mxCell>
        <mxCell id="H946ehROVmCah_HtwamR-17" value="" style="edgeStyle=entityRelationEdgeStyle;fontSize=12;html=1;endArrow=ERmany;startArrow=ERmany;rounded=0;strokeColor=light-dark(#000000,#9A9BA4);" edge="1" parent="1" source="H946ehROVmCah_HtwamR-8" target="QR9d3r7scgIrLYgvwBB5-34">
          <mxGeometry width="100" height="100" relative="1" as="geometry">
            <mxPoint x="-71" y="68" as="sourcePoint" />
            <mxPoint x="-260" y="206" as="targetPoint" />
            <Array as="points">
              <mxPoint x="-440" y="1" />
              <mxPoint x="-550" y="109" />
            </Array>
          </mxGeometry>
        </mxCell>
        <mxCell id="H946ehROVmCah_HtwamR-19" value="m" style="edgeLabel;html=1;align=center;verticalAlign=middle;resizable=0;points=[];labelBackgroundColor=none;" vertex="1" connectable="0" parent="H946ehROVmCah_HtwamR-17">
          <mxGeometry x="0.7575" y="-2" relative="1" as="geometry">
            <mxPoint x="5" y="-14" as="offset" />
          </mxGeometry>
        </mxCell>
      </root>
    </mxGraphModel>
  </diagram>
</mxfile>
